<svg width="58" height="58" viewBox="0 0 58 58" fill="none" xmlns="http://www.w3.org/2000/svg">
<path d="M56.3464 26.4689L31.5305 1.65424C30.1017 0.224752 27.7839 0.224752 26.3538 1.65424L21.2012 6.80805L27.7375 13.3443C29.2567 12.8309 30.9986 13.1755 32.2091 14.3866C33.427 15.6052 33.7685 17.3619 33.2421 18.8866L39.5427 25.1866C41.0674 24.6608 42.8254 25.001 44.0427 26.2202C45.7437 27.9212 45.7437 30.6775 44.0427 32.3798C42.3404 34.0815 39.5841 34.0815 37.8812 32.3798C36.6021 31.0994 36.2854 29.219 36.9342 27.6429L31.0579 21.7672V37.2293C31.4724 37.4347 31.8639 37.7081 32.2091 38.0532C33.9101 39.7542 33.9101 42.5105 32.2091 44.2134C30.508 45.9138 27.7499 45.9138 26.0501 44.2134C24.3491 42.5099 24.3491 39.7536 26.0501 38.0532C26.4707 37.6332 26.9575 37.3153 27.4771 37.1025V21.4963C26.9575 21.2835 26.472 20.9687 26.0501 20.5456C24.7617 19.2577 24.4518 17.3662 25.1124 15.7839L18.6689 9.33919L1.65237 26.3538C0.22289 27.7845 0.22289 30.1023 1.65237 31.5318L26.4695 56.347C27.8984 57.7765 30.2155 57.7765 31.6462 56.347L56.3464 31.6468C57.7759 30.2173 57.7759 27.8984 56.3464 26.4689Z" fill="#F05233"/>
</svg>
