<svg width="28" height="27" viewBox="0 0 28 27" fill="none" xmlns="http://www.w3.org/2000/svg">
<path fill-rule="evenodd" clip-rule="evenodd" d="M14.0116 0C6.26354 0 0 6.18747 0 13.8422C0 19.9611 4.01327 25.1406 9.58073 26.9737C10.2768 27.1115 10.5318 26.6759 10.5318 26.3094C10.5318 25.9885 10.5088 24.8886 10.5088 23.7425C6.61115 24.5676 5.79949 22.0924 5.79949 22.0924C5.17311 20.4881 4.245 20.0758 4.245 20.0758C2.96929 19.2279 4.33793 19.2279 4.33793 19.2279C5.75303 19.3195 6.49557 20.6487 6.49557 20.6487C7.74804 22.757 9.76629 22.1613 10.5782 21.7945C10.6941 20.9007 11.0655 20.282 11.4599 19.9383C8.3512 19.6174 5.08047 18.4257 5.08047 13.1087C5.08047 11.5962 5.63687 10.3587 6.51851 9.39624C6.37941 9.05256 5.89213 7.63141 6.6579 5.72932C6.6579 5.72932 7.84097 5.36257 10.5085 7.15019C11.6506 6.84719 12.8284 6.69305 14.0116 6.69175C15.1947 6.69175 16.4007 6.85235 17.5143 7.15019C20.1822 5.36257 21.3653 5.72932 21.3653 5.72932C22.131 7.63141 21.6435 9.05256 21.5044 9.39624C22.4092 10.3587 22.9427 11.5962 22.9427 13.1087C22.9427 18.4257 19.672 19.5943 16.5401 19.9383C17.0506 20.3737 17.4911 21.1986 17.4911 22.505C17.4911 24.3612 17.4682 25.851 17.4682 26.3091C17.4682 26.6759 17.7234 27.1115 18.4192 26.974C23.9867 25.1403 27.9999 19.9611 27.9999 13.8422C28.0229 6.18747 21.7364 0 14.0116 0Z" fill="white"/>
</svg>
