<svg width="200" height="187" viewBox="0 0 200 187" fill="none" xmlns="http://www.w3.org/2000/svg">
<g clip-path="url(#clip0_1_118)">
<path d="M54.9859 119.238H24.4219C28.4687 133.081 35.9781 145.488 46.9719 156.453C64.4984 173.933 85.5734 182.662 110.219 182.662C115.145 182.662 119.919 182.295 124.555 181.598C143.118 178.804 159.371 170.434 173.297 156.453C184.361 145.492 191.923 133.081 196.002 119.238H54.9859ZM38.1328 77.8421H22.1664C21.5711 81.394 21.1829 84.9773 21.0039 88.574H199.441C199.259 84.9123 198.86 81.3402 198.271 77.8421M21.0039 98.54C21.1844 102.204 21.5805 105.775 22.1664 109.272H198.274C198.874 105.72 199.265 102.137 199.446 98.54M196.005 67.8737C191.931 53.9928 184.367 41.5275 173.297 30.4855C159.408 16.6358 143.202 8.32606 124.698 5.53071C119.906 4.80814 115.066 4.44717 110.22 4.4509C85.5742 4.4509 64.4977 13.1322 46.9727 30.4863C35.975 41.5275 28.4609 53.9928 24.4172 67.8737" fill="#2C2255"/>
<path d="M15.6977 93.5601C15.6977 46.5526 51.0993 7.49555 97.154 0.625587C96.0118 0.584296 94.8633 0.53833 93.7094 0.53833C42.0282 0.539109 0.128174 42.1874 0.128174 93.5601C0.128174 144.935 42.0266 186.58 93.7094 186.58C94.8672 186.58 96.0149 186.537 97.1618 186.495C51.0993 179.625 15.6977 140.568 15.6977 93.5601Z" fill="#F7941E"/>
<path d="M170.946 88.5717C170.655 84.9464 170.036 81.3546 169.099 77.8398H51.3477C50.4097 81.3545 49.7911 84.9463 49.4993 88.5717H170.946Z" fill="url(#paint0_linear_1_118)"/>
<path d="M170.946 98.5393H49.5007C49.7914 102.165 50.4095 105.757 51.3476 109.272H169.101C170.037 105.757 170.655 102.165 170.946 98.5393Z" fill="url(#paint1_linear_1_118)"/>
<path d="M110.223 154.334C134.677 154.334 155.756 139.967 165.463 119.238H54.9844C64.6914 139.967 85.7695 154.334 110.223 154.334Z" fill="url(#paint2_linear_1_118)"/>
<path d="M40.4999 98.5401H199.32C199.405 96.9546 199.451 95.3583 199.451 93.751C199.451 92.0121 199.388 90.2888 199.289 88.5725H21.0038C20.9054 90.2865 20.8413 92.0121 20.8413 93.751C20.8413 95.3583 20.8882 96.9546 20.9726 98.5401H40.4999ZM54.628 67.8738H24.4155C23.4226 71.1194 22.7819 74.4492 22.1663 77.8422H197.707C197.1 74.4758 196.298 71.1475 195.305 67.8738M186.229 109.27H22.1647C22.7632 112.661 23.4444 115.988 24.421 119.238H195.889C196.869 115.964 197.658 112.636 198.251 109.27H186.229Z" fill="white"/>
</g>
<defs>
<linearGradient id="paint0_linear_1_118" x1="6121.84" y1="11769.1" x2="6121.84" y2="-1633.89" gradientUnits="userSpaceOnUse">
<stop offset="0.3033" stop-color="#473788"/>
<stop offset="0.872" stop-color="#2C2255"/>
</linearGradient>
<linearGradient id="paint1_linear_1_118" x1="6121.65" y1="9720.76" x2="6121.65" y2="-3683.21" gradientUnits="userSpaceOnUse">
<stop offset="0.3033" stop-color="#473788"/>
<stop offset="0.872" stop-color="#2C2255"/>
</linearGradient>
<linearGradient id="paint2_linear_1_118" x1="5578.78" y1="7670.88" x2="5578.78" y2="-5731.82" gradientUnits="userSpaceOnUse">
<stop offset="0.3033" stop-color="#473788"/>
<stop offset="0.8631" stop-color="#2C2255"/>
</linearGradient>
<clipPath id="clip0_1_118">
<rect width="200" height="187" fill="white"/>
</clipPath>
</defs>
</svg>
